<?xml version="1.0" encoding="utf-8"?>
<!-- Generator: Adobe Illustrator 22.0.1, SVG Export Plug-In . SVG Version: 6.00 Build 0)  -->
<svg version="1.1" id="Capa_1" xmlns="http://www.w3.org/2000/svg" xmlns:xlink="http://www.w3.org/1999/xlink" x="0px" y="0px"
	 viewBox="0 0 146.1 132.6" style="enable-background:new 0 0 146.1 132.6;" xml:space="preserve">
<style type="text/css">
	.st0{display:none;}
	.st1{display:inline;}
	.st2{stroke:#FFFFFF;stroke-width:2;stroke-miterlimit:10;}
	.st3{enable-background:new    ;}
	.st4{fill:#CCB187;}
</style>
<title>Recurso 2</title>
<g id="Capa_2_1_" class="st0">
	<g id="Layer_1" class="st1">
		<path class="st2" d="M3.5,88.6C8.3,94.9,17,97.8,25,99.2c3.6,7.2,8.5,13.3,14.9,17c5.3,3.1,11.7,4.3,18.5,3.9
			c3.9,4.1,12,11.5,19.6,11.5c1.1,0,2.1-0.1,3.1-0.4c5-1.5,8.1-6.2,9.1-14c0.3-2.7,0.5-5.5,0.4-8.2c6.8-4.1,13-9.2,18.4-15
			c6.1-6.7,10.6-14.7,13-23.5c5-3.2,12.1-8.3,17.4-14.2c6.7-5.5,9.2-19.7,2.8-14.3c-2.9,3.8-8.3,9.4-18,16.2
			c0.9-10.4-0.9-19.9-4.1-26.1c-2.6-4.9-10.2-16.8-24.7-20.2c-9.6-2.3-20.1-0.4-31.4,5.4C57.8,11.6,51.1,9,45.1,9.7
			c-12.5,1.5-26.8,14.8-28.6,40.4c-0.1,0.8-0.1,1.7-0.1,2.5C3.9,63.9-1.3,72.7,0.3,81.4C1.1,84.6,2.2,86.9,3.5,88.6z M9.2,80.1
			c-1-4.1,1.9-9.2,7.3-15.2c0.6,8.1,2.1,16.2,4.5,24C15.3,87.4,10.4,84.7,9.2,80.1z M93.5,20.6c10.9,2.6,16.8,11.8,18.8,15.7
			c2.9,5.5,4.4,16.5,2,28.1c-0.9,1.2-4,5.1-12.7,10.4c1-6.3-0.4-12.7-3.8-18c-4.4-6.9-10.9-11-17.8-11.5c-1-4.1-1.9-7.2-2.5-8.9
			c-1.6-4.4-3.9-8.6-6.8-12.2C79,20.1,86.7,18.9,93.5,20.6z M78.9,82.7c-6.3-1.9-11.1-7.1-12.4-13.5c-0.6-2.8-1-9.9,6.8-13.8
			C75.1,63.4,77.3,73.1,78.9,82.7z M46.2,18.6c0.3,0,0.6-0.1,0.9,0c2.8,0,5.9,1.4,8.9,3.6c-0.8,0.5-1.5,1-2.3,1.6
			c-10.8,7.7-19.9,14.4-27.4,20.4C29.2,28.6,38,19.6,46.2,18.6z M31.2,90.9c-4.1-10.1-6.1-22.7-6-34.2c9.1-7.9,21.1-16.6,33.7-25.6
			c1.3-0.9,2.6-1.8,3.8-2.6c2.7,3.1,4.8,6.7,6.3,10.6c0.5,1.5,1.2,4.1,2.1,7.5c-0.3,0.1-0.6,0.2-0.9,0.4c-4.2-4.7-11.7-9.9-19.7-7.1
			c-10.8,3.8-17.8,16-16.8,29.1c0.4,5.5,3.6,14.1,7.6,22.8l-1-0.1l-1.8-0.1C36.6,91.4,34,91.2,31.2,90.9z M44.5,108.4
			c-3.3-2-6.1-4.8-8.3-8l1.7,0.1l1.7,0.1c1.7,0.1,3.8,0.3,6.2,0.4c1.9,3.5,3.8,6.9,5.6,9.8C49,110.4,46.6,109.6,44.5,108.4z
			 M51.4,92.1C46.9,83,43,73.5,42.7,68.2c-0.7-8.9,3.9-17.4,10.8-19.9c0.5-0.2,1.1-0.3,1.7-0.3c2.9,0,5.8,2.3,7.6,4.2
			c-4.7,5-6.6,12.1-5.1,18.8c1.6,8,6.8,14.8,14,18.5C65.1,91.3,58.2,92.1,51.4,92.1z M56.1,101c8.5-0.3,16.9-2,24.8-5.1
			c0.3,2.9,0.6,5.6,0.8,8.2c-6.1,3.3-12.6,5.5-19.4,6.6C60,107.5,57.9,104.3,56.1,101L56.1,101z M81.5,116c-0.6,4.4-1.9,6.3-2.8,6.6
			c-1.6,0.5-5-1-9-4.3c4.1-1.1,8.2-2.6,12.1-4.4C81.7,114.6,81.6,115.3,81.5,116L81.5,116z M90.2,61.6c3.5,5.5,4.9,13.9-2.4,19.9
			c-1.6-9.3-3.6-18.7-5.4-26.6C85.6,56.3,88.3,58.6,90.2,61.6L90.2,61.6z M102.5,88c-3.7,4.1-7.9,7.7-12.4,10.9
			c-0.2-2.4-0.5-4.9-0.9-7.4c0.5-0.3,0.9-0.6,1.4-0.9c5.7-2.5,11.3-5.4,16.6-8.7C105.9,84,104.3,86,102.5,88L102.5,88z"/>
	</g>
</g>
<g class="st3">
	<path class="st4" d="M121.3,25c3.6,3.2,5.4,7.4,5.4,12.8c0,4.2-1.1,7.8-3.4,10.9c-2.3,3.1-5.2,5.5-9,7.3c-3.3,1.6-9.7,3.8-19.2,6.8
		c4.9,2.1,8.4,5,10.7,8.9c2.3,3.9,3.4,8.3,3.4,13.2c0,5.4-1.6,10.4-4.8,15.2c-3.2,4.8-7.8,8.6-13.8,11.5c-6,2.9-13,4.4-21.1,4.4
		c-7.5,0-14.5-1.3-21-4c-6.5-2.6-11.6-6.4-15.4-11.3c-3.8-4.9-5.7-10.6-5.7-17.1c0-5.7,1.4-10.6,4.2-14.5c2.8-3.9,6-6.9,9.7-9
		c3.6-2,7-3.4,10.1-4.2c-4.2-1.8-7.5-4.2-9.8-7.3c-2.3-3-3.4-6.2-3.4-9.5c0-2.9,0.8-5.5,2.5-8s4.2-4.5,7.5-6
		c3.3-1.5,7.3-2.3,11.9-2.3c5.8,0,10.3,1.3,13.5,3.9c1.6,1.3,2.8,2.8,3.6,4.4c0.8,1.6,1.2,3.1,1.2,4.6c0,2.1-0.7,3.7-2.2,5
		c-1.5,1.3-3.2,1.9-5.1,1.9c-1.8,0-3.4-0.6-4.7-1.8c-1.3-1.2-2-2.8-2-4.7c0-1.9,0.6-3.5,1.9-4.9c1.3-1.3,2.9-2.1,4.9-2.3
		c-0.4-1.1-1.5-2.1-3.3-2.9c-1.8-0.8-4-1.2-6.6-1.2c-4.5,0-8.1,1.4-10.9,4.1c-2.8,2.7-4.2,6.5-4.2,11.4c0,5.8,2.2,10.7,6.6,14.8
		c3-0.5,5.7-0.8,8.1-0.8c1.6,0,2.8,0.3,3.8,0.8c1,0.5,1.4,1.3,1.4,2.2c0,0.8-0.3,1.4-1,1.8c-0.6,0.4-1.5,0.7-2.7,0.7
		c-1.4,0-2.8-0.3-4.3-0.8c-1.5-0.5-3.2-1.2-5.2-2.1c-11.3,3.4-16.9,10.5-16.9,21.3c0,5.8,1.5,10.8,4.5,15.1c3,4.2,7.2,7.5,12.5,9.7
		c5.3,2.2,11.2,3.3,17.8,3.3c6.2,0,11.9-1,17.1-2.9c5.2-2,9.4-4.7,12.5-8.3c3.1-3.6,4.6-7.8,4.6-12.5c0-3.5-0.9-7-2.7-10.5
		c-1.8-3.6-5.3-6.3-10.4-8.3c-6.8,2.1-11.7,3.7-15,4.9c-3.6,1.4-6.5,3-8.5,4.7c-2,1.8-3,4-3,6.6c0,3.1,1.3,5.6,3.8,7.5
		c2.6,1.9,5.3,2.9,8.1,2.9c1.5,0,3.1-0.3,4.8-0.8c1.7-0.5,2.7-1.2,3-2.1c-1.6-0.3-3.1-1-4.3-2.1c-1.2-1-1.8-2.6-1.8-4.6
		c0-2.1,0.7-3.7,2-4.9c1.3-1.2,3.1-1.8,5.1-1.8c2.1,0,3.7,0.7,5,2c1.3,1.3,1.9,3,1.9,5.1c0,3.5-1.6,6.2-4.8,8.2c-3.2,2-6.8,3-10.7,3
		c-4.2,0-8-1.3-11.2-3.8c-3.2-2.6-4.9-6.3-4.9-11.4c0-4.4,1.5-8.2,4.5-11.2c3-3.1,7.5-5.7,13.5-7.7l9.2-2.7c5.2-1.5,9.5-2.8,13-3.9
		c3.5-1.1,6.6-2.3,9.5-3.6c4.2-1.9,7.1-3.9,8.7-5.9c1.6-2,2.5-4.2,2.5-6.6c0-3.6-1.5-6.7-4.5-9.3c-3-2.6-6.5-3.8-10.6-3.8
		c-2.2,0-3.5,0.4-3.9,1.2c1.1,0.5,2,1.4,2.7,2.5c0.7,1.2,1,2.3,1,3.4c0,1.8-0.7,3.3-2.1,4.5c-1.4,1.2-3.1,1.8-5.1,1.8
		c-1.8,0-3.4-0.6-4.8-1.7c-1.4-1.1-2.1-2.7-2.1-4.8c0-3.1,1.5-5.4,4.4-6.8c2.9-1.4,6.2-2.1,9.9-2.1C113.2,20.2,117.7,21.8,121.3,25z
		"/>
</g>
</svg>
